<?xml version="1.0" encoding="UTF-8" standalone="no"?>
<!-- Created with Inkscape (http://www.inkscape.org/) -->

<svg
   width="113.28571mm"
   height="119.35984mm"
   viewBox="0 0 113.28571 119.35984"
   version="1.1"
   id="svg1"
   xml:space="preserve"
   xmlns:inkscape="http://www.inkscape.org/namespaces/inkscape"
   xmlns:sodipodi="http://sodipodi.sourceforge.net/DTD/sodipodi-0.dtd"
   xmlns:xlink="http://www.w3.org/1999/xlink"
   xmlns="http://www.w3.org/2000/svg"
   xmlns:svg="http://www.w3.org/2000/svg"><sodipodi:namedview
     id="namedview1"
     pagecolor="#ffffff"
     bordercolor="#000000"
     borderopacity="0.25"
     inkscape:showpageshadow="2"
     inkscape:pageopacity="0.0"
     inkscape:pagecheckerboard="0"
     inkscape:deskcolor="#d1d1d1"
     inkscape:document-units="mm"><inkscape:page
       x="0"
       y="8.9644316e-22"
       width="113.28571"
       height="119.35984"
       id="page2"
       margin="0"
       bleed="0" /></sodipodi:namedview><defs
     id="defs1" /><g
     inkscape:label="Calque 1"
     inkscape:groupmode="layer"
     id="layer1"
     transform="translate(-14.268393,-163.11025)"><g
       id="g67"
       transform="translate(-24.099987,136.32771)"
       inkscape:export-filename="CHOPi Basic.png"
       inkscape:export-xdpi="96"
       inkscape:export-ydpi="96"><path
         id="path70"
         style="fill:#e34e28"
         d="m 79.929688,27.955078 c -7.921352,0.297651 -15.642386,3.113285 -22.179139,7.542655 -0.842124,0.53458 -2.077298,1.198792 -1.840393,2.390939 0.392409,1.284473 1.647252,2.028299 2.517698,2.972751 1.659325,1.469819 3.135973,3.14902 4.902909,4.490613 0.831831,0.692005 2.058661,0.597618 2.855786,-0.09807 1.998227,-1.431022 3.957191,-3.082317 6.275295,-4.041775 0.364177,-0.183186 1.077702,-0.198096 0.400223,0.197888 -2.208316,1.506649 -4.465758,2.949026 -6.586764,4.583178 -0.46398,0.317818 -1.224035,0.78164 -0.861241,1.434475 1.317231,1.750349 2.83858,3.383727 4.135085,5.168214 0.88349,1.027445 1.456657,2.419985 2.679369,3.099364 0.819072,0.195975 1.521888,-0.503723 2.292049,-0.690814 4.848596,-1.90481 10.049079,-3.055896 15.278263,-2.865826 0.737631,-0.09931 0.756261,-0.921211 0.703125,-1.508594 -0.05773,-2.373483 0.526851,-4.698932 0.675781,-7.053906 0.0823,-0.997582 -0.819624,-1.769098 -1.777227,-1.760061 -1.073723,-0.09306 -2.154133,-0.08321 -3.230585,-0.132517 0.302911,-2.531855 1.005142,-5.003002 1.58157,-7.484212 0.274152,-1.454528 0.923147,-2.908427 0.727024,-4.408366 -0.27009,-1.153724 -1.650053,-1.151199 -2.575492,-1.381034 -1.964154,-0.38905 -3.973779,-0.510396 -5.973336,-0.454902 z m 10.996091,24.800778 c -1.253616,-0.137626 -2.531338,-0.08409 -3.787109,-0.04883 -0.09932,-1.208992 6.568911,0.918284 3.787109,0.04883 z m -1.843748,42.261722 c -1.761865,0.08443 -3.789105,0.349975 -5.005859,1.761719 -0.613977,1.062958 0.384321,2.139433 1.173841,2.769437 2.489004,1.939916 5.43843,3.301606 8.510256,4.011376 3.514169,0.63304 7.253541,0.45469 10.553761,-0.98554 0.87546,-0.36943 0.82363,-1.58437 0.0955,-2.07742 -3.11574,-2.799077 -7.168769,-4.367757 -11.240947,-5.140636 -1.346978,-0.243484 -2.717128,-0.371482 -4.086512,-0.338936 z"
         sodipodi:nodetypes="cccccccccccccccccccccccccsccccccss" /><path
         id="path72"
         style="fill:#728dd4"
         sodipodi:type="inkscape:offset"
         inkscape:radius="1.3076713"
         inkscape:original="M 50.390625 44.34375 C 41.794369 55.349187 40.938129 71.593099 48.441406 81.3125 C 50.056795 83.405 49.9446 83.465824 51.050781 79.904297 C 53.592964 71.719335 59.139518 63.863197 65.740234 59.095703 L 66.525391 58.527344 L 64.960938 56.486328 C 61.213008 51.593076 61.069083 51.547357 59.369141 54.771484 C 58.111549 57.156647 57.463694 57.73909 56.740234 57.138672 C 56.068802 56.581433 56.99058 53.686642 58.529297 51.517578 C 59.189956 50.586274 59.343486 50.765693 54.601562 46.929688 C 50.974106 43.995235 50.763496 43.866378 50.390625 44.34375 z "
         d="m 50.603516,42.830078 c -0.63592,0.0454 -1.096594,0.520086 -1.244141,0.708984 -8.954575,11.464179 -9.916479,28.256903 -1.953125,38.572266 0.3975,0.514904 0.682083,0.913029 1.023437,1.269531 0.170678,0.178252 0.350485,0.363398 0.699219,0.527344 0.348735,0.163946 0.998947,0.203114 1.429688,-0.0293 0.861481,-0.464821 0.876694,-0.974727 1.072265,-1.505859 0.195572,-0.531133 0.392968,-1.194669 0.667969,-2.080078 2.452676,-7.896779 7.877209,-15.564883 14.207031,-20.136719 a 1.3078021,1.3078021 0 0 0 0.002,-0.002 l 0.785157,-0.56836 A 1.3078021,1.3078021 0 0 0 67.5625,57.732422 L 65.998047,55.691406 H 66 c -0.938841,-1.22574 -1.657173,-2.157536 -2.275391,-2.857422 -0.618218,-0.699885 -1.087662,-1.237346 -1.943359,-1.5 -0.427849,-0.131327 -0.982582,-0.111741 -1.408203,0.07422 -0.25371,0.110849 -0.389661,0.285957 -0.5625,0.443359 0.12589,-0.171288 0.259174,-0.257725 0.335937,-0.660156 0.125828,-0.659645 -0.218418,-1.326609 -0.5625,-1.728515 C 58.89582,48.659079 57.792405,47.828182 55.423828,45.912109 53.607756,44.442986 52.68416,43.68744 51.958984,43.242187 51.596396,43.019561 51.239435,42.78468 50.603516,42.830078 Z" /><path
         id="path71"
         style="fill:#f2ae1a"
         sodipodi:type="inkscape:offset"
         inkscape:radius="0.67525351"
         inkscape:original="M 92.146484 53.8125 C 73.130197 52.345395 53.925277 66.72751 51.951172 85.953125 L 51.779297 87.636719 L 52.546875 87.46875 C 57.357701 86.422852 60.196635 86.900145 59.287109 88.599609 C 59.06842 89.008234 58.603249 89.115186 56.564453 89.230469 C 42.202387 90.04257 34.640276 107.38212 44.273438 117.41406 C 53.184929 126.69445 66.413858 120.73598 59.085938 110.74219 C 58.184599 109.51295 58.114251 109.46781 57.910156 110.01953 C 57.473386 111.20023 56.322274 110.97124 55.800781 109.59961 C 55.07451 107.68937 59.304392 105.03906 63.080078 105.03906 C 65.246546 105.03906 64.249298 106.93955 61.833984 107.41406 C 60.931073 107.59145 60.111519 107.78831 60.011719 107.84961 C 59.911916 107.91096 60.478406 108.82084 61.271484 109.87305 C 63.699647 113.09459 64.334465 115.76241 63.402344 118.83203 C 62.986963 120.19994 61.334198 131.24879 60.972656 135.07617 C 60.640979 138.58738 61.976316 139.85175 66.814453 140.60352 C 80.220713 142.68665 90.444883 138.93777 82.15625 134.97852 C 79.880392 133.8914 79.891197 133.98758 81.507812 129.35742 C 83.204158 124.4989 83.174368 124.53527 85.291016 124.80664 C 90.215919 125.43804 97.031643 124.78495 101.07812 123.29297 C 103.29496 122.47559 103.8555 122.48458 104.12695 123.33984 C 104.46567 124.40707 102.76438 125.37744 98.816406 126.36914 L 97.101562 126.79883 L 97.105469 132.25781 C 97.110596 139.16445 96.645398 138.65616 103.43945 139.16797 C 116.92682 140.18402 122.76863 139.06755 122.76562 135.47461 C 122.76343 132.82909 121.01572 131.36675 116.91406 130.58008 C 115.97261 130.39952 115.88672 129.82949 115.88672 123.66016 C 115.88672 118.93876 115.74991 117.9487 115.21484 118.81445 C 114.85306 119.39983 112.87434 120.65039 112.30859 120.65039 C 110.56542 120.65039 110.87876 119.28796 112.97461 117.76172 C 135.24607 101.54323 127.69864 64.624744 100.23438 55.443359 C 97.576246 54.554739 94.863097 54.022086 92.146484 53.8125 z M 107.25781 67.652344 C 109.80921 67.976744 112.43357 70.752607 112.66016 75.666016 C 112.81921 79.115099 111.16354 82.538134 109.33008 82.552734 C 109.08048 82.554721 108.63871 82.607039 108.34766 82.667969 C 105.48138 83.268008 102.35092 78.967763 102.29102 74.347656 C 102.22754 69.454986 104.70641 67.327944 107.25781 67.652344 z M 83.244141 70.082031 C 84.586569 70.223744 86.003936 71.16912 87.185547 72.884766 C 90.389969 77.537444 90.193278 83.943527 86.792969 85.658203 C 80.933949 88.612735 75.83729 78.789473 79.757812 72.099609 C 80.635829 70.601387 81.901713 69.940318 83.244141 70.082031 z M 144.19922 71.789062 C 143.14809 71.986855 141.9575 72.496879 140.76953 73.396484 C 138.88516 74.823443 137.02619 77.523438 137.92773 77.523438 C 138.11677 77.523438 138.80152 77.874116 139.44922 78.302734 C 141.12237 79.40994 143.31424 78.741447 146.0332 76.296875 C 149.24862 73.405939 147.3526 71.195686 144.19922 71.789062 z M 135.17969 79.304688 C 133.54139 79.212688 132.06959 80.012054 130.92969 81.710938 C 130.4733 82.391127 129.59517 83.481875 128.97656 84.136719 L 127.85156 85.328125 L 128.06836 86.783203 C 128.89257 92.32245 127.7496 100.1716 125.2793 105.93359 C 124.93315 106.74097 130.95437 106.42788 133.4043 105.51172 C 137.05799 104.14541 141.56382 100.84218 143.88477 97.828125 L 145.02734 96.34375 L 144.49219 95.808594 C 144.1972 95.5136 143.7102 94.791246 143.41016 94.203125 C 143.11012 93.615003 142.71754 93.132812 142.53711 93.132812 C 142.01318 93.132812 140.73294 91.813438 140.33594 90.863281 C 140.0306 90.132513 139.8137 89.977183 139.00195 89.908203 C 136.76682 89.718268 137.16972 88.051667 139.50195 87.839844 C 142.80254 87.54007 143.20977 85.097926 140.43555 82.244141 C 138.62285 80.379452 136.81798 79.396687 135.17969 79.304688 z M 143.57031 81.632812 C 143.44043 81.645974 143.57939 81.98854 143.92578 82.667969 C 145.08273 84.937246 144.72554 87.370272 142.96289 89.210938 L 142.2832 89.919922 L 142.96484 90.601562 C 143.79425 91.43097 143.89576 91.433958 144.99219 90.685547 C 147.63613 88.880821 147.55739 84.978563 144.82812 82.576172 C 144.10018 81.935406 143.7002 81.619651 143.57031 81.632812 z M 109.18359 87.509766 C 112.15041 87.614469 113.57086 89.493072 113.44922 93.148438 C 113.27051 98.518668 109.20865 102.9077 102.79102 104.66406 C 93.090808 107.3188 81.613196 101.74 82.068359 94.591797 C 82.311882 90.767348 83.633319 90.165026 92.339844 89.914062 C 99.124001 89.718511 99.518055 89.662995 105.70117 87.996094 C 107.0338 87.636831 108.19466 87.474865 109.18359 87.509766 z M 149.4082 88.308594 C 149.3572 88.133791 149.28223 88.124349 149.17969 88.371094 C 148.10323 90.961448 147.66683 91.706255 146.78516 92.460938 C 145.7139 93.377893 145.60663 93.641789 146.10352 94.138672 C 146.96199 94.99714 148.60179 93.786885 149.17578 91.871094 C 149.48351 90.843483 149.5612 88.833002 149.4082 88.308594 z M 90.900391 135.4668 C 86.654895 135.4668 86.644204 135.4701 87.095703 137.1582 C 88.280817 141.58921 84.082248 143.60138 74.232422 143.32031 C 63.365337 143.01021 58.738281 141.38021 58.738281 137.86133 C 58.738281 137.19399 58.304732 137.17567 55.212891 137.71484 C 41.870316 140.04159 49.234207 143.72574 69.716797 144.9707 C 97.246651 146.644 134.55029 143.83997 132.38086 140.25977 C 131.6998 139.13582 124.61914 137.04584 124.61914 137.96875 C 124.61914 140.72519 117.37488 142.12477 105.96484 141.57422 C 96.105211 141.09847 94.720703 140.49234 94.720703 136.65234 L 94.720703 135.4668 L 90.900391 135.4668 z "
         d="m 88.566406,53.044922 c -18.126931,0.4441 -35.39705,14.432742 -37.287109,32.839844 l -0.171875,1.683593 a 0.67532104,0.67532104 0 0 0 0.816406,0.728516 l 0.765625,-0.167969 c 2.357632,-0.512561 4.231359,-0.631961 5.261719,-0.458984 0.51518,0.08649 0.775047,0.261175 0.814453,0.310547 0.03941,0.04937 0.078,0.01636 -0.07422,0.300781 -0.02692,0.05031 0.07079,0.01531 -0.234375,0.08594 -0.305163,0.07063 -0.921104,0.132313 -1.93164,0.189454 -14.889628,0.841931 -22.762965,18.884549 -12.738282,29.324219 4.621372,4.81268 10.431037,5.76554 14.259766,4.04102 1.914364,-0.86227 3.339467,-2.44002 3.732422,-4.48829 0.392954,-2.04827 -0.240248,-4.48746 -2.148438,-7.08984 -0.226646,-0.3091 -0.402233,-0.54821 -0.554687,-0.73633 -0.152455,-0.18811 -0.257818,-0.32795 -0.486328,-0.46875 -0.114256,-0.0704 -0.291226,-0.14905 -0.515625,-0.1289 -0.2244,0.0201 -0.419753,0.1523 -0.519532,0.26171 -0.199557,0.21883 -0.220901,0.3611 -0.277343,0.51368 -0.07324,0.19799 -0.157031,0.27948 -0.19336,0.30468 -0.03633,0.0252 -0.0258,0.0214 -0.06445,0.0137 -0.07731,-0.0154 -0.38136,-0.20093 -0.58789,-0.74414 -0.08576,-0.22556 -0.0499,-0.49198 0.226562,-0.89649 0.276466,-0.40451 0.790104,-0.87171 1.453125,-1.28711 1.326042,-0.83081 3.238903,-1.46094 4.96875,-1.46094 0.345186,0 0.398397,0.0533 0.441406,0.0703 -0.162819,0.24007 -0.812583,0.7692 -1.818359,0.96679 -0.459898,0.0904 -0.896116,0.18567 -1.238281,0.26758 -0.171083,0.041 -0.317591,0.0772 -0.4375,0.11133 -0.119909,0.0341 -0.13033,-0.004 -0.369141,0.14258 -0.225527,0.13863 -0.313461,0.39102 -0.328125,0.52344 -0.01466,0.13241 0.002,0.20377 0.01563,0.26367 0.02734,0.11979 0.06117,0.18933 0.09766,0.26758 0.07297,0.15648 0.168809,0.32128 0.291016,0.51757 0.244414,0.39258 0.591711,0.89449 0.998047,1.4336 2.354359,3.12362 2.899186,5.47344 2.023437,8.35742 -0.141104,0.46468 -0.303281,1.36346 -0.523437,2.6582 -0.220156,1.29474 -0.476765,2.92754 -0.732422,4.63672 -0.511313,3.41835 -1.015109,7.13104 -1.199219,9.08008 -0.174531,1.84763 0.108404,3.33052 1.189453,4.35351 1.081049,1.023 2.754194,1.523 5.220703,1.90625 6.789595,1.055 12.742858,0.66645 16.142579,-0.58007 0.84993,-0.31163 1.546281,-0.67807 2.070312,-1.13672 0.524031,-0.45866 0.890732,-1.05868 0.892578,-1.73242 0.0018,-0.67375 -0.349748,-1.30689 -0.917969,-1.86329 -0.56822,-0.55639 -1.372034,-1.07437 -2.451171,-1.58984 -0.572272,-0.27336 -0.978569,-0.47308 -1.179688,-0.62109 -0.201118,-0.14802 -0.204584,-0.15461 -0.224609,-0.32813 -0.04005,-0.34703 0.292621,-1.52295 1.101562,-3.83984 0.848406,-2.42993 1.324627,-3.63836 1.617188,-3.99024 0.14628,-0.17593 0.165438,-0.17891 0.355468,-0.19921 0.190031,-0.0203 0.556644,0.0178 1.087891,0.0859 5.061101,0.64886 11.890038,0.004 16.107422,-1.55078 1.09033,-0.40202 1.77089,-0.56424 2.00977,-0.56055 0.11943,0.002 0.0934,0.0101 0.084,0.002 -0.009,-0.008 0.0285,0.0275 0.0762,0.17773 0.0264,0.0833 0.0366,0.0778 -0.0469,0.20117 -0.0835,0.12336 -0.3062,0.33106 -0.69141,0.55079 -0.77042,0.43945 -2.14605,0.92921 -4.091796,1.41796 l -1.714844,0.42969 a 0.67532104,0.67532104 0 0 0 -0.511719,0.6543 l 0.0039,5.45898 c 0.0013,1.71909 -0.02792,2.98055 0.03906,3.9668 0.06698,0.98625 0.229644,1.76352 0.759766,2.3418 0.530122,0.57827 1.292225,0.805 2.259765,0.94531 0.967539,0.14031 2.209649,0.20271 3.900389,0.33008 6.76944,0.50996 11.63258,0.4956 14.90039,-0.12891 1.63391,-0.31225 2.88094,-0.77277 3.77149,-1.4707 0.89054,-0.69794 1.38176,-1.68633 1.38086,-2.76758 -0.001,-1.47136 -0.53959,-2.74925 -1.63086,-3.66211 -1.09127,-0.91286 -2.66011,-1.49191 -4.76953,-1.89648 -0.17268,-0.0331 -0.14122,-0.0276 -0.15821,-0.0488 -0.017,-0.0212 -0.10631,-0.18476 -0.16797,-0.59961 -0.12332,-0.82971 -0.15234,-2.52589 -0.15234,-5.60742 0,-2.36723 -0.0279,-3.7837 -0.14258,-4.61133 -0.0287,-0.20691 -0.0603,-0.37687 -0.11914,-0.54688 -0.0588,-0.17 -0.12325,-0.39456 -0.44922,-0.56054 -0.16298,-0.083 -0.38586,-0.10095 -0.54687,-0.0586 -0.16102,0.0424 -0.26567,0.11548 -0.34375,0.18164 -0.15616,0.13233 -0.23492,0.25636 -0.32031,0.39453 -0.002,0.004 -0.16117,0.18804 -0.37891,0.36524 -0.21775,0.1772 -0.49973,0.3763 -0.78516,0.55664 -0.28542,0.18034 -0.57778,0.34354 -0.8125,0.45312 -0.23471,0.10958 -0.4628,0.14063 -0.35547,0.14063 -0.30404,0 -0.40385,-0.0575 -0.43359,-0.0703 0.0604,-0.20654 0.53442,-0.89593 1.49805,-1.59766 22.72433,-16.54828 15.02137,-54.161741 -12.92383,-63.503906 -2.71222,-0.9067 -5.480283,-1.450379 -8.250001,-1.664062 -1.211781,-0.09349 -2.424351,-0.123357 -3.632813,-0.09375 z m 18.605474,15.277344 c 2.13074,0.270915 4.59837,2.689579 4.81445,7.375 0.0741,1.606569 -0.28463,3.233923 -0.85156,4.40625 -0.56694,1.172326 -1.31239,1.76947 -1.81055,1.773437 -0.33761,0.0027 -0.76593,0.05773 -1.11524,0.130859 -1.06823,0.223629 -2.33874,-0.48641 -3.39648,-1.939453 -1.05774,-1.453043 -1.81769,-3.568219 -1.8457,-5.728515 -0.0303,-2.331056 0.54792,-3.918358 1.34375,-4.861328 0.79582,-0.942971 1.79596,-1.291708 2.86133,-1.15625 z m -23.998052,2.43164 c 1.07998,0.114008 2.35082,0.910338 3.455078,2.513672 1.516434,2.201794 2.230947,4.843463 2.16211,7.083984 -0.06884,2.240522 -0.899779,3.995656 -2.302735,4.703125 -1.295288,0.653177 -2.446066,0.594261 -3.519531,0.06641 -1.073465,-0.527854 -2.055121,-1.575662 -2.761719,-2.9375 -1.413195,-2.723676 -1.690014,-6.63177 0.132813,-9.742188 0.778676,-1.32871 1.753657,-1.801544 2.833984,-1.6875 z M 144.07422,71.125 c -1.16738,0.219668 -2.44974,0.775887 -3.71289,1.732422 -1.0204,0.772704 -1.97994,1.834097 -2.61328,2.753906 -0.31668,0.459905 -0.55414,0.865671 -0.67188,1.287109 -0.0589,0.21072 -0.11808,0.447874 0.0137,0.765625 0.13176,0.317752 0.55668,0.535157 0.83789,0.535157 -0.16151,0 -0.0889,-0.01352 -0.0195,0.01367 0.0693,0.02719 0.17683,0.07714 0.30078,0.140625 0.24792,0.126973 0.56399,0.311074 0.86719,0.511718 1.0019,0.663006 2.22661,0.79064 3.46875,0.41211 1.24214,-0.378531 2.53565,-1.216374 3.93945,-2.478516 0.86021,-0.773395 1.41743,-1.527361 1.69532,-2.273437 0.27788,-0.746077 0.25236,-1.511396 -0.084,-2.117188 -0.67269,-1.211584 -2.27088,-1.612616 -4.02148,-1.283203 z m -8.85742,7.505859 c -1.87952,-0.105545 -3.61253,0.862306 -4.84766,2.703125 -0.4192,0.62476 -1.30219,1.725209 -1.88281,2.339844 l -1.125,1.191406 a 0.67532104,0.67532104 0 0 0 -0.17774,0.5625 l 0.2168,1.455078 c 0.79717,5.357513 -0.32967,13.157958 -2.74219,18.785158 -0.0899,0.20973 -0.0754,0.54911 0.0527,0.75781 0.12813,0.20871 0.2851,0.29905 0.41992,0.36524 0.26963,0.13237 0.52999,0.17723 0.84375,0.21679 0.62752,0.0791 1.44437,0.0824 2.35351,0.0352 1.8183,-0.0945 3.94119,-0.38563 5.3125,-0.89844 3.81754,-1.42758 8.34611,-4.74447 10.7793,-7.904296 l 1.14258,-1.484375 a 0.67532104,0.67532104 0 0 0 -0.0586,-0.888672 l -0.53516,-0.535156 c -0.16801,-0.168015 -0.68969,-0.911525 -0.95703,-1.435547 -0.17025,-0.333713 -0.36078,-0.632353 -0.5586,-0.875 -0.0989,-0.121323 -0.19893,-0.229387 -0.32031,-0.328125 -0.12137,-0.09874 -0.24983,-0.236328 -0.5957,-0.236328 0.15242,0 0.0236,0.0033 -0.125,-0.09961 -0.14855,-0.102947 -0.34507,-0.27267 -0.53906,-0.472656 -0.388,-0.399973 -0.77225,-0.941828 -0.91407,-1.28125 -0.16803,-0.402161 -0.35334,-0.762391 -0.70703,-1.015625 -0.35369,-0.253235 -0.74993,-0.313882 -1.19336,-0.351563 -0.46629,-0.03963 -0.73084,-0.162391 -0.82226,-0.230469 0.0119,-0.01756 0.0355,-0.0853 0.22461,-0.193359 0.22362,-0.127758 0.5962,-0.254882 1.10156,-0.300781 0.90615,-0.0823 1.66247,-0.310727 2.25,-0.714844 0.58753,-0.404117 0.98666,-1.00848 1.09961,-1.685547 0.22589,-1.354134 -0.52646,-2.830128 -1.99219,-4.337891 -1.8862,-1.940294 -3.82378,-3.037042 -5.70312,-3.142578 z m 8.28515,2.330078 c -0.1684,0.01707 -0.41267,0.14309 -0.52929,0.31836 -0.11662,0.17527 -0.1254,0.32587 -0.125,0.427734 8e-4,0.203729 0.0434,0.303459 0.0859,0.421875 0.085,0.236832 0.21317,0.497629 0.39063,0.845703 1.04269,2.045176 0.73897,4.110636 -0.84961,5.769532 l -0.67969,0.708984 a 0.67532104,0.67532104 0 0 0 0.0117,0.943359 l 0.68164,0.681641 c 0.21208,0.212078 0.38596,0.385429 0.58984,0.535156 0.20389,0.149727 0.47283,0.284594 0.77344,0.296875 0.60122,0.02456 0.96491,-0.286104 1.52149,-0.666015 1.51172,-1.031885 2.26097,-2.70009 2.22656,-4.402344 -0.0344,-1.702254 -0.82785,-3.454562 -2.32617,-4.773438 -0.36872,-0.324564 -0.65602,-0.567904 -0.89063,-0.746093 -0.1173,-0.0891 -0.21831,-0.162598 -0.33203,-0.226563 -0.11372,-0.06396 -0.21235,-0.168859 -0.54883,-0.134766 z m 5.69532,6.554688 c -0.31143,0.05445 -0.42298,0.224779 -0.49415,0.324219 -0.0712,0.09944 -0.10907,0.181462 -0.14648,0.271484 -1.06924,2.57299 -1.41238,3.152397 -2.21094,3.835938 -0.55148,0.472046 -0.91194,0.755516 -1.11523,1.255859 -0.10165,0.250171 -0.10753,0.589637 -0.008,0.841797 0.0997,0.25216 0.25035,0.41637 0.40429,0.570312 0.34672,0.346716 0.84021,0.510674 1.29102,0.47461 0.45081,-0.03606 0.85976,-0.229789 1.22851,-0.501953 0.73751,-0.544329 1.34927,-1.433639 1.67579,-2.523438 0.1841,-0.614779 0.2757,-1.393584 0.3164,-2.125 0.0407,-0.731415 0.0681,-1.305878 -0.082,-1.820312 -0.0247,-0.08483 -0.0494,-0.175784 -0.14648,-0.308594 -0.0971,-0.132811 -0.40147,-0.349369 -0.71289,-0.294922 z m -40.03711,0.669922 c 1.34494,0.04747 2.19731,0.454506 2.77539,1.21875 0.57807,0.764244 0.89567,1.986137 0.83789,3.722656 -0.16781,5.042526 -3.94882,9.186817 -10.16016,10.886717 -4.668542,1.27768 -9.822139,0.56712 -13.697264,-1.3164 -3.875126,-1.88352 -6.377828,-4.858744 -6.173829,-8.062504 0.05849,-0.918584 0.1868,-1.58857 0.416016,-2.054688 0.229216,-0.466118 0.536486,-0.772238 1.152344,-1.052734 1.231717,-0.560992 3.710134,-0.812438 8.048828,-0.9375 6.787083,-0.195636 7.331139,-0.273609 13.517575,-1.941407 1.28672,-0.346886 2.38648,-0.494537 3.28321,-0.46289 z M 90.900391,134.79102 c -1.061462,0 -1.862334,-5.7e-4 -2.480469,0.0273 -0.618135,0.0279 -1.048607,0.0627 -1.457031,0.24414 -0.204213,0.0907 -0.412344,0.2412 -0.548829,0.45312 -0.136484,0.21193 -0.184212,0.4511 -0.1875,0.6543 -0.0066,0.4064 0.103737,0.73939 0.216797,1.16211 0.267269,0.99929 0.216893,1.77235 -0.08398,2.41016 -0.300877,0.6378 -0.879996,1.18976 -1.849609,1.65429 -1.939227,0.92908 -5.38156,1.3872 -10.257813,1.24805 -5.402554,-0.15416 -9.234141,-0.64675 -11.617187,-1.48633 -1.191524,-0.41979 -2.009094,-0.9218 -2.507813,-1.46093 -0.498718,-0.53914 -0.712891,-1.10421 -0.712891,-1.83594 0,-0.23995 -0.04542,-0.59592 -0.318359,-0.86328 -0.272942,-0.26737 -0.60849,-0.32444 -0.931641,-0.33789 -0.646301,-0.0269 -1.513948,0.11794 -3.066406,0.38867 -3.375709,0.58867 -5.443766,1.19493 -6.548828,2.07812 -0.276265,0.2208 -0.503652,0.47492 -0.634766,0.79688 -0.131113,0.32196 -0.131121,0.71204 -0.0039,1.03125 0.254431,0.63841 0.818714,1.02145 1.56836,1.39648 2.998583,1.50013 9.9206,2.66834 20.197265,3.29297 13.806162,0.83916 30.031157,0.55517 42.560549,-0.38672 6.26469,-0.47094 11.60012,-1.10444 15.27539,-1.85547 1.83763,-0.37551 3.25198,-0.76907 4.2207,-1.23437 0.48436,-0.23265 0.86993,-0.47083 1.14649,-0.84375 0.27655,-0.37292 0.33185,-0.99856 0.0801,-1.41406 -0.19547,-0.32259 -0.44808,-0.49282 -0.74804,-0.68164 -0.29996,-0.18883 -0.65541,-0.36838 -1.05469,-0.54688 -0.79856,-0.357 -1.76836,-0.70132 -2.7207,-0.98242 -0.95235,-0.2811 -1.87923,-0.49825 -2.61719,-0.58985 -0.36898,-0.0458 -0.6814,-0.0677 -0.99219,-0.0215 -0.15539,0.0231 -0.31959,0.0559 -0.50586,0.18164 -0.18627,0.12572 -0.37695,0.42568 -0.37695,0.69922 0,0.39334 -0.23462,0.77882 -0.98047,1.22266 -0.74585,0.44383 -1.94621,0.85219 -3.51953,1.15625 -3.14664,0.6081 -7.77468,0.82635 -13.44531,0.55273 -4.91755,-0.23728 -7.713922,-0.54566 -9.082034,-1.14453 -0.684057,-0.29944 -0.998967,-0.61297 -1.212891,-1.06836 -0.213924,-0.45539 -0.306641,-1.11573 -0.306641,-2.03516 v -1.18554 a 0.67532104,0.67532104 0 0 0 -0.675781,-0.67578 z" /><path
         style="fill:#e34e28"
         sodipodi:type="inkscape:offset"
         inkscape:radius="0"
         inkscape:original="M 79.929688 27.955078 C 72.008336 28.252729 64.286753 31.068677 57.75 35.498047 C 56.907876 36.032627 55.673251 36.696525 55.910156 37.888672 C 56.302565 39.173145 57.557288 39.916876 58.427734 40.861328 C 60.087059 42.331147 61.563142 44.00997 63.330078 45.351562 C 64.161909 46.043568 65.390375 45.949594 66.1875 45.253906 C 68.185727 43.822884 70.142833 42.172349 72.460938 41.212891 C 72.825114 41.029705 73.538807 41.014172 72.861328 41.410156 C 70.653012 42.916805 68.396397 44.359989 66.275391 45.994141 C 65.811411 46.311959 65.051268 46.774899 65.414062 47.427734 C 66.731294 49.178083 68.252323 50.811216 69.548828 52.595703 C 70.432318 53.623148 71.005804 55.015933 72.228516 55.695312 C 73.047588 55.891287 73.751323 55.190997 74.521484 55.003906 C 79.37008 53.099096 84.569644 51.948602 89.798828 52.138672 C 90.536459 52.039362 90.555089 51.218242 90.501953 50.630859 C 90.444223 48.257376 91.028804 45.931146 91.177734 43.576172 C 91.260034 42.57859 90.357994 41.807369 89.400391 41.816406 C 88.326668 41.723346 87.246374 41.732901 86.169922 41.683594 C 86.472833 39.151739 87.175525 36.680429 87.751953 34.199219 C 88.026105 32.744691 88.674639 31.290955 88.478516 29.791016 C 88.208426 28.637292 86.827783 28.639991 85.902344 28.410156 C 83.93819 28.021106 81.929245 27.899584 79.929688 27.955078 z M 88.080078 52.326172 C 87.512364 52.310339 87.113842 52.404783 87.138672 52.707031 C 88.394443 52.671771 89.672165 52.618233 90.925781 52.755859 C 93.012133 53.40795 89.78322 52.373669 88.080078 52.326172 z M 89.082031 95.017578 C 87.320166 95.102008 85.292926 95.367553 84.076172 96.779297 C 83.462195 97.842255 84.46048 98.918824 85.25 99.548828 C 87.739004 101.48874 90.68794 102.85078 93.759766 103.56055 C 97.273935 104.19359 101.01423 104.01445 104.31445 102.57422 C 105.18991 102.20479 105.13829 100.9911 104.41016 100.49805 C 101.29442 97.69897 97.240147 96.130301 93.167969 95.357422 C 91.820991 95.113938 90.451415 94.985032 89.082031 95.017578 z "
         xlink:href="#path70"
         id="path82"
         inkscape:href="#path70"
         d="M 79.929688,27.955078 C 72.008336,28.252729 64.286753,31.068677 57.75,35.498047 c -0.842124,0.53458 -2.076749,1.198478 -1.839844,2.390625 0.392409,1.284473 1.647132,2.028204 2.517578,2.972656 1.659325,1.469819 3.135408,3.148642 4.902344,4.490234 0.831831,0.692006 2.060297,0.598032 2.857422,-0.09766 1.998227,-1.431022 3.955333,-3.081557 6.273438,-4.041015 0.364176,-0.183186 1.077869,-0.198719 0.40039,0.197265 -2.208316,1.506649 -4.464931,2.949833 -6.585937,4.583985 -0.46398,0.317818 -1.224123,0.780758 -0.861329,1.433593 1.317232,1.750349 2.838261,3.383482 4.134766,5.167969 0.88349,1.027445 1.456976,2.42023 2.679688,3.099609 0.819072,0.195975 1.522807,-0.504315 2.292968,-0.691406 4.848596,-1.90481 10.04816,-3.055304 15.277344,-2.865234 0.737631,-0.09931 0.756261,-0.92043 0.703125,-1.507813 -0.05773,-2.373483 0.526851,-4.699713 0.675781,-7.054687 0.0823,-0.997582 -0.81974,-1.768803 -1.777343,-1.759766 -1.073723,-0.09306 -2.154017,-0.08351 -3.230469,-0.132812 0.302911,-2.531855 1.005603,-5.003165 1.582031,-7.484375 0.274152,-1.454528 0.922686,-2.908264 0.726563,-4.408203 -0.27009,-1.153724 -1.650733,-1.151025 -2.576172,-1.38086 -1.964154,-0.38905 -3.973099,-0.510572 -5.972656,-0.455078 z m 8.15039,24.371094 c -0.567714,-0.01583 -0.966236,0.07861 -0.941406,0.380859 1.255771,-0.03526 2.533493,-0.0888 3.787109,0.04883 2.086352,0.652091 -1.142561,-0.38219 -2.845703,-0.429687 z m 1.001953,42.691406 c -1.761865,0.08443 -3.789105,0.349975 -5.005859,1.761719 -0.613977,1.062958 0.384308,2.139527 1.173828,2.769531 2.489004,1.939912 5.43794,3.301952 8.509766,4.011722 3.514169,0.63304 7.254464,0.4539 10.554684,-0.98633 0.87546,-0.36943 0.82384,-1.58312 0.0957,-2.07617 -3.11574,-2.79908 -7.170013,-4.367749 -11.242191,-5.140628 -1.346978,-0.243484 -2.716554,-0.37239 -4.085938,-0.339844 z" /><path
         style="fill:#169855"
         d="M 105.30417,55.053576 C 102.40065,53.53122 97.382178,52.065535 93.630471,51.644182 l -1.687764,-0.189552 0.04459,-1.848669 c 0.05804,-2.406261 0.612451,-5.949711 0.93089,-5.949711 0.45286,0 2.963823,1.154569 4.791445,2.203161 1.747616,1.002688 1.813041,1.018247 2.326758,0.553346 1.15962,-1.049448 -0.412482,-2.486375 -4.775536,-4.364907 -1.658971,-0.714278 -1.728456,-0.781329 -1.677671,-1.618891 0.06193,-1.021296 1.235716,-5.168515 1.88163,-6.648149 l 0.446641,-1.023147 1.455208,0.984091 c 4.343768,2.93749 7.800978,8.418652 8.885608,14.08748 0.39101,2.043661 0.52117,7.741891 0.17638,7.721573 -0.10915,-0.0064 -0.61516,-0.230186 -1.12448,-0.497231 z"
         id="path69"
         sodipodi:nodetypes="sscssssssscsscs" /><path
         id="path68"
         style="fill:#1c1a1e"
         sodipodi:type="inkscape:offset"
         inkscape:radius="0"
         inkscape:original="M 79.474609 26.791016 C 70.63356 26.98111 61.32468 30.354622 55.068359 36.023438 C 53.00085 37.896796 52.801182 37.602446 61.714844 45.785156 L 63.025391 46.988281 L 61.804688 47.986328 L 60.585938 48.986328 L 55.804688 45.263672 C 50.671368 41.265636 50.454474 41.162763 49.433594 42.267578 C 39.001783 53.557073 38.4885 73.223829 48.330078 84.574219 C 49.592855 86.030593 49.742187 86.331722 49.742188 87.414062 C 49.742188 88.737039 49.913573 88.560539 46.978516 90.246094 C 29.591396 100.23123 41.071958 131.7925 58.974609 123.22461 C 60.571535 122.46035 60.613133 122.49196 60.304688 124.22266 C 59.834552 126.86059 58.737988 135.85548 58.742188 137.03516 C 58.75609 140.89957 62.122319 142.56617 71.041016 143.125 C 80.838585 143.73889 84.562596 143.04376 86.445312 140.25 C 87.985379 137.96469 86.49117 134.46081 83.429688 133.18164 C 82.946162 132.97961 82.551034 132.78635 82.552734 132.75195 C 82.554474 132.71752 83.014007 131.44889 83.572266 129.93359 L 84.585938 127.17773 L 89.71875 127.20508 L 94.853516 127.23047 L 94.863281 132.47266 C 94.878491 139.61395 94.946822 139.81716 97.568359 140.58789 C 101.48004 141.73793 117.08624 141.88461 120.4082 140.80273 C 126.91641 138.68316 126.86641 132.50314 120.31445 129.25977 L 118.13672 128.18164 L 118.00391 122.37891 L 117.87109 116.57422 L 119.54102 114.57812 C 120.4592 113.47968 121.82867 111.59535 122.58398 110.39258 L 123.95703 108.20703 L 125.01562 108.38281 C 132.50023 109.63051 141.3317 105.24908 146.54492 97.703125 C 146.86921 97.233724 147.65609 96.619613 148.29297 96.337891 C 151.82344 94.776196 152.88447 87.777959 149.96289 85.320312 C 149.48472 84.918075 148.94518 84.241041 148.76562 83.814453 C 148.58607 83.387864 147.68761 82.285271 146.76758 81.365234 L 145.09375 79.693359 L 145.90234 79.216797 C 152.02348 75.609702 150.81224 69.06246 144.13477 69.662109 C 141.32652 69.914295 138.69704 71.750366 136.32422 75.111328 C 134.84966 77.199956 134.78687 77.248706 133.6543 77.253906 C 132.04721 77.261254 130.98072 78.017183 129.2832 80.351562 C 127.36045 82.995683 127.438 82.981728 126.88477 80.779297 C 124.76879 72.35552 119.31425 64.552179 111.58789 58.894531 L 108.74414 56.8125 L 108.74414 53.251953 C 108.74414 42.883069 100.69752 29.530836 94.810547 30.130859 C 94.397495 30.172958 92.997973 33.874147 92.078125 37.357422 C 91.667153 38.913685 91.250894 40.31711 91.152344 40.476562 C 91.002797 40.718534 87.947986 40.608421 87.634766 40.349609 C 87.593548 40.31555 88.22211 37.681614 89.03125 34.498047 C 90.708797 27.89773 90.778361 28.381586 88.029297 27.695312 C 85.316661 27.018134 82.421626 26.727651 79.474609 26.791016 z M 79.945312 28.763672 C 82.203326 28.695689 84.357032 28.875789 86.320312 29.324219 C 88.153013 29.742823 88.127056 29.227948 86.628906 35.371094 C 85.961738 38.106808 85.395154 40.821046 85.371094 41.404297 L 85.328125 42.464844 L 87.707031 42.542969 C 90.689109 42.639957 90.600312 42.516492 90.107422 45.835938 C 89.880178 47.366343 89.693359 49.229301 89.693359 49.974609 L 89.693359 51.330078 L 88.033203 51.330078 C 84.123205 51.330078 79.033204 52.362118 74.953125 53.982422 C 73.819992 54.432419 72.75515 54.860647 72.585938 54.935547 C 72.416724 55.010449 71.783537 54.344286 71.179688 53.455078 C 70.575837 52.56587 69.194022 50.771941 68.109375 49.46875 L 66.136719 47.099609 L 68.205078 45.576172 C 69.342091 44.738314 71.129617 43.519346 72.177734 42.867188 C 74.043323 41.706383 74.405518 41.173097 73.765625 40.533203 C 72.982759 39.750337 70.994734 40.683137 66.75 43.822266 C 64.299836 45.634248 64.861205 45.835072 60.296875 41.503906 C 55.610416 37.05685 55.748788 37.806002 59.201172 35.53125 C 65.465971 31.403418 73.171276 28.96762 79.945312 28.763672 z M 95.912109 32.757812 L 97.367188 33.742188 C 103.13775 37.644558 106.62695 44.779812 106.62695 52.675781 C 106.62695 54.263709 106.53687 55.557181 106.42773 55.550781 C 106.31858 55.544349 105.81401 55.319779 105.30469 55.052734 C 102.40117 53.530378 97.382566 52.065884 93.630859 51.644531 L 91.943359 51.455078 L 91.986328 49.605469 C 92.044371 47.199208 92.59953 43.65625 92.917969 43.65625 C 93.370829 43.65625 95.881362 44.810783 97.708984 45.859375 C 99.4566 46.862063 99.523395 46.87701 100.03711 46.412109 C 101.19673 45.362661 99.624773 43.925407 95.261719 42.046875 C 93.602748 41.332597 93.533204 41.267248 93.583984 40.429688 C 93.64591 39.408391 94.81893 35.260884 95.464844 33.78125 L 95.912109 32.757812 z M 50.779297 43.921875 C 50.914294 43.922441 58.254525 49.707428 58.835938 50.271484 C 58.966271 50.397925 58.465283 51.706404 57.6875 53.271484 C 56.277448 56.108839 56.155402 56.750713 56.929688 57.238281 C 57.587927 57.652775 58.054094 57.135437 59.439453 54.453125 C 60.284076 52.817781 60.783102 52.122044 61.072266 52.177734 C 61.52125 52.264201 64.459683 55.55106 65.740234 57.400391 L 66.525391 58.533203 L 65.484375 59.363281 C 58.083709 65.265817 53.042021 72.66227 50.771484 80.947266 C 50.074795 83.489425 50.076238 83.490145 48.541016 81.558594 C 42.533699 74.000441 41.624753 60.639662 46.435547 50.589844 C 47.495415 48.375764 50.397992 43.920275 50.779297 43.921875 z M 64.412109 48.683594 C 64.740128 48.683822 67.706978 52.343711 69.273438 54.679688 L 70.367188 56.310547 L 69.431641 56.863281 C 68.230186 57.572157 68.202119 57.567429 67.626953 56.59375 C 67.070438 55.651644 63.552242 51.381665 62.873047 50.824219 C 62.40464 50.439777 63.667714 48.683077 64.412109 48.683594 z M 85.542969 53.681641 C 87.946025 53.414576 90.370189 53.405336 92.775391 53.685547 C 123.78134 57.297803 137.75121 96.985065 114.83008 116.34375 C 111.19444 119.41433 111.10657 119.50182 111.28125 119.95703 C 111.63583 120.88105 112.64703 120.76352 114.16016 119.62109 C 114.95259 119.02281 115.66514 118.5332 115.74414 118.5332 C 115.82315 118.5332 115.89966 120.52737 115.91406 122.96484 C 115.92845 125.40232 116.01653 128.0426 116.11133 128.83203 L 116.28516 130.26758 L 117.74609 130.55859 C 122.5126 131.50702 124.83837 136.42971 121.36328 138.21484 C 118.9308 139.46439 110.96156 139.85323 102.36523 139.14258 C 96.600681 138.66603 96.837891 138.99916 96.837891 131.36133 C 96.837891 126.41108 96.639485 126.78562 99.666016 125.99609 C 102.81745 125.17398 103.83163 124.64365 103.93359 123.75781 C 104.06152 122.64637 103.40886 122.59399 100.71094 123.50391 C 96.618058 124.88425 88.151825 125.58855 84.765625 124.83008 C 83.471207 124.54015 83.157293 124.99194 81.609375 129.35352 C 79.858309 134.28751 79.820171 133.69643 81.955078 134.77539 C 85.918209 136.77831 86.117676 139.68676 82.365234 140.74414 C 76.989947 142.2588 63.19277 140.72851 61.345703 138.41211 C 60.480571 137.32715 61.97714 122.72042 63.388672 118.4707 C 64.278674 115.79115 63.333423 112.41096 60.865234 109.44336 C 59.500718 107.80274 59.504865 107.77907 61.316406 107.42773 C 63.947809 106.91739 64.728415 106.21337 63.652344 105.32031 C 62.186394 104.10368 55.826172 107.11959 55.826172 109.03125 C 55.826172 110.56966 57.397841 111.36791 57.818359 110.04297 C 58.103485 109.14462 59.360897 110.5079 60.693359 113.16211 C 64.220272 120.18758 54.899798 124.90679 47.210938 119.98828 C 33.715487 111.35535 40.056913 90.235948 56.460938 89.183594 C 58.305909 89.065235 58.877625 88.931287 59.105469 88.568359 C 59.932662 87.25074 57.525018 86.683466 53.841797 87.326172 C 51.551533 87.725813 51.710196 87.804143 51.8125 86.314453 C 52.929225 70.053462 68.721574 55.55109 85.542969 53.681641 z M 106.83789 67.734375 C 101.3061 67.739185 100.65621 78.268558 105.96484 81.871094 C 110.52321 84.964485 114.54771 77.917566 111.69727 71.833984 C 110.32124 68.897168 108.93935 67.732575 106.83789 67.734375 z M 82.976562 70.148438 C 81.568225 70.132475 80.246901 71.05783 79.376953 73.080078 C 77.370661 77.74383 78.82242 83.464868 82.523438 85.478516 C 86.833434 87.823496 90.568322 83.171526 89.070312 77.324219 C 87.914502 72.812646 85.323791 70.17504 82.976562 70.148438 z M 145.35156 71.503906 C 149.12424 71.3809 148.48748 75.623215 143.45312 78.162109 C 140.99192 79.403334 140.97158 79.405978 139.69531 78.548828 C 139.05888 78.121395 138.26316 77.703331 137.92773 77.619141 C 136.31674 77.214808 140.67163 72.67129 143.46484 71.841797 C 144.18378 71.628296 144.81261 71.521479 145.35156 71.503906 z M 135.39844 79.142578 C 135.99276 79.248811 136.63265 79.476543 137.33203 79.822266 C 142.55558 82.404403 144.09312 87.841797 139.59961 87.841797 C 138.67799 87.841797 138.31626 87.971723 138.00781 88.412109 C 137.39751 89.28343 137.88612 89.958984 139.12695 89.958984 C 140.0222 89.958984 140.15636 90.050392 140.45312 90.871094 C 140.79163 91.80723 142.12181 93.132813 142.72266 93.132812 C 142.90767 93.132813 143.27267 93.605824 143.5332 94.183594 C 143.79374 94.761364 144.22911 95.434539 144.5 95.679688 C 146.21301 97.229945 138.19231 104.11465 132.69531 105.8125 C 130.91847 106.36133 127.9231 106.64703 126.0293 106.44922 L 124.92578 106.33398 L 125.55859 104.90234 C 127.57587 100.34091 128.6077 93.365251 128.06055 87.992188 L 127.76562 85.101562 L 128.81445 84.15625 C 129.39087 83.636427 130.35336 82.468614 130.95312 81.560547 C 132.24864 79.599096 133.61546 78.823879 135.39844 79.142578 z M 143.3457 81.345703 C 143.48822 81.30219 143.95813 81.659612 144.81836 82.394531 C 147.64437 84.808864 147.74455 89.460652 145.00195 90.878906 C 143.93426 91.431028 143.59639 91.38778 142.86328 90.607422 C 142.18184 89.882066 142.16082 89.957342 143.52539 88.236328 C 144.65224 86.815131 144.77777 84.542723 143.83008 82.695312 C 143.38764 81.832831 143.20319 81.389216 143.3457 81.345703 z M 109.01953 87.597656 C 108.00005 87.535022 106.83002 87.695338 105.53125 88.095703 C 100.79346 89.556196 99.57146 89.73286 92.736328 89.951172 C 84.661306 90.209087 83.448153 90.573297 82.384766 93.058594 C 80.332381 97.855329 86.609222 104.04257 94.525391 105.02734 C 104.13518 106.22281 112.76527 101.0559 113.43164 93.707031 C 113.76968 89.979102 112.07798 87.785559 109.01953 87.597656 z M 149.24805 87.902344 C 149.35256 87.910397 149.39329 88.436694 149.43359 89.486328 C 149.51617 91.637156 149.20915 92.637197 148.08984 93.861328 C 147.42388 94.589645 146.5501 94.625929 145.93945 93.951172 C 145.50035 93.465973 145.53913 93.390652 146.91016 92.033203 C 147.90668 91.046565 148.44025 90.260974 148.67969 89.429688 C 148.97458 88.40588 149.14353 87.89429 149.24805 87.902344 z M 90.402344 95.865234 C 94.665755 95.921459 99.791316 97.701192 103.29102 100.58594 C 104.7487 101.78749 104.06599 102.27216 100.01172 102.91211 C 94.637227 103.76046 89.035177 102.10387 85.982422 98.763672 C 84.480393 97.120214 84.485567 97.098878 86.519531 96.40625 C 87.657064 96.018885 88.981207 95.846493 90.402344 95.865234 z "
         d="m 79.474609,26.791016 c -8.841049,0.190094 -18.149929,3.563606 -24.40625,9.232422 -2.067509,1.873358 -2.267177,1.579008 6.646485,9.761718 l 1.310547,1.203125 -1.220703,0.998047 -1.21875,1 -4.78125,-3.722656 C 50.671368,41.265636 50.454474,41.162763 49.433594,42.267578 39.001783,53.557073 38.4885,73.223829 48.330078,84.574219 c 1.262777,1.456374 1.412109,1.757503 1.41211,2.839843 0,1.322977 0.171385,1.146477 -2.763672,2.832032 -17.38712,9.985136 -5.906558,41.546406 11.996093,32.978516 1.596926,-0.76426 1.638524,-0.73265 1.330079,0.99805 -0.470136,2.63793 -1.5667,11.63282 -1.5625,12.8125 0.0139,3.86441 3.380131,5.53101 12.298828,6.08984 9.797569,0.61389 13.52158,-0.0812 15.404296,-2.875 1.540067,-2.28531 0.04586,-5.78919 -3.015624,-7.06836 -0.483526,-0.20203 -0.878654,-0.39529 -0.876954,-0.42969 0.0017,-0.0344 0.461273,-1.30306 1.019532,-2.81836 l 1.013672,-2.75586 5.132812,0.0273 5.134766,0.0254 0.0098,5.24219 c 0.01521,7.14129 0.08354,7.3445 2.705078,8.11523 3.911681,1.15004 19.517881,1.29672 22.839841,0.21484 6.50821,-2.11957 6.45821,-8.29959 -0.0937,-11.54296 l -2.17773,-1.07813 -0.13281,-5.80273 -0.13282,-5.80469 1.66993,-1.9961 c 0.91818,-1.09844 2.28765,-2.98277 3.04296,-4.18554 l 1.37305,-2.18555 1.05859,0.17578 c 7.48461,1.2477 16.31608,-3.13373 21.5293,-10.679685 0.32429,-0.469401 1.11117,-1.083512 1.74805,-1.365234 3.53047,-1.561695 4.5915,-8.559932 1.66992,-11.017579 -0.47817,-0.402237 -1.01771,-1.079271 -1.19727,-1.505859 -0.17955,-0.426589 -1.07801,-1.529182 -1.99804,-2.449219 l -1.67383,-1.671875 0.80859,-0.476562 c 6.12114,-3.607095 4.9099,-10.154337 -1.76757,-9.554688 -2.80825,0.252186 -5.43773,2.088257 -7.81055,5.449219 -1.47456,2.088628 -1.53735,2.137378 -2.66992,2.142578 -1.60709,0.0073 -2.67358,0.763277 -4.3711,3.097656 -1.92275,2.644121 -1.8452,2.630166 -2.39843,0.427735 -2.11598,-8.423777 -7.57052,-16.227118 -15.29688,-21.884766 L 108.74414,56.8125 v -3.560547 c 0,-10.368884 -8.04662,-23.721117 -13.933593,-23.121094 -0.413052,0.0421 -1.812574,3.743288 -2.732422,7.226563 -0.410972,1.556263 -0.827231,2.959688 -0.925781,3.11914 -0.149547,0.241972 -3.204358,0.131859 -3.517578,-0.126953 -0.04122,-0.03406 0.587344,-2.667995 1.396484,-5.851562 1.677547,-6.600317 1.747111,-6.116461 -1.001953,-6.802735 -2.712636,-0.677178 -5.607671,-0.967661 -8.554688,-0.904296 z m 0.470703,1.972656 c 2.258014,-0.06798 4.41172,0.112117 6.375,0.560547 1.832701,0.418604 1.806744,-0.09627 0.308594,6.046875 -0.667168,2.735714 -1.233752,5.449952 -1.257812,6.033203 l -0.04297,1.060547 2.378906,0.07813 c 2.982078,0.09699 2.893281,-0.02648 2.400391,3.292969 -0.227244,1.530405 -0.414063,3.393363 -0.414063,4.138671 v 1.355469 h -1.660156 c -3.909998,0 -8.999999,1.03204 -13.080078,2.652344 -1.133133,0.449997 -2.197975,0.878225 -2.367187,0.953125 -0.169214,0.0749 -0.802401,-0.591261 -1.40625,-1.480469 -0.603851,-0.889208 -1.985666,-2.683137 -3.070313,-3.986328 l -1.972656,-2.369141 2.068359,-1.523437 c 1.137013,-0.837858 2.924539,-2.056826 3.972656,-2.708984 1.865589,-1.160805 2.227784,-1.694091 1.587891,-2.333985 -0.782866,-0.782866 -2.770891,0.149934 -7.015625,3.289063 -2.450164,1.811982 -1.888795,2.012806 -6.453125,-2.31836 -4.686459,-4.447056 -4.548087,-3.697904 -1.095703,-5.972656 6.264799,-4.127832 13.970104,-6.56363 20.74414,-6.767578 z m 15.966797,3.99414 1.455079,0.984376 c 5.770562,3.90237 9.259762,11.037624 9.259762,18.933593 0,1.587928 -0.0901,2.8814 -0.19922,2.875 -0.10915,-0.0064 -0.61372,-0.231002 -1.12304,-0.498047 -2.90352,-1.522356 -7.922124,-2.98685 -11.673831,-3.408203 l -1.6875,-0.189453 0.04297,-1.849609 c 0.05804,-2.406261 0.613202,-5.949219 0.931641,-5.949219 0.45286,0 2.963393,1.154533 4.791015,2.203125 1.747616,1.002688 1.814411,1.017635 2.328126,0.552734 1.15962,-1.049448 -0.412337,-2.486702 -4.775391,-4.365234 -1.658971,-0.714278 -1.728515,-0.779627 -1.677735,-1.617187 0.06193,-1.021297 1.234946,-5.168804 1.88086,-6.648438 z M 50.779297,43.921875 c 0.134997,5.66e-4 7.475228,5.785553 8.056641,6.349609 0.130333,0.126441 -0.370655,1.43492 -1.148438,3 -1.410052,2.837355 -1.532098,3.479229 -0.757812,3.966797 0.658239,0.414494 1.124406,-0.102844 2.509765,-2.785156 0.844623,-1.635344 1.343649,-2.331081 1.632813,-2.275391 0.448984,0.08647 3.387417,3.373326 4.667968,5.222657 l 0.785157,1.132812 -1.041016,0.830078 c -7.400666,5.902536 -12.442354,13.298989 -14.712891,21.583985 -0.696689,2.542159 -0.695246,2.542879 -2.230468,0.611328 -6.007317,-7.558153 -6.916263,-20.918932 -2.105469,-30.96875 1.059868,-2.21408 3.962445,-6.669569 4.34375,-6.667969 z m 13.632812,4.761719 c 0.328019,2.28e-4 3.294869,3.660117 4.861329,5.996094 l 1.09375,1.630859 -0.935547,0.552734 c -1.201455,0.708876 -1.229522,0.704148 -1.804688,-0.269531 -0.556515,-0.942106 -4.074711,-5.212085 -4.753906,-5.769531 -0.468407,-0.384442 0.794667,-2.141142 1.539062,-2.140625 z m 21.13086,4.998047 c 2.403056,-0.267065 4.82722,-0.276305 7.232422,0.0039 31.005949,3.612256 44.975819,43.299518 22.054689,62.658203 -3.63564,3.07058 -3.72351,3.15807 -3.54883,3.61328 0.35458,0.92402 1.36578,0.80649 2.87891,-0.33594 0.79243,-0.59828 1.50498,-1.08789 1.58398,-1.08789 0.079,0 0.15552,1.99417 0.16992,4.43164 0.0144,2.43748 0.10247,5.07776 0.19727,5.86719 l 0.17383,1.43555 1.46093,0.29101 c 4.76651,0.94843 7.09228,5.87112 3.61719,7.65625 -2.43248,1.24955 -10.40172,1.63839 -18.99805,0.92774 -5.764549,-0.47655 -5.527339,-0.14342 -5.527339,-7.78125 0,-4.95025 -0.198406,-4.57571 2.828125,-5.36524 3.151434,-0.82211 4.165614,-1.35244 4.267574,-2.23828 0.12793,-1.11144 -0.52473,-1.16382 -3.22265,-0.2539 -4.092882,1.38034 -12.559115,2.08464 -15.945315,1.32617 -1.294418,-0.28993 -1.608332,0.16186 -3.15625,4.52344 -1.751066,4.93399 -1.789204,4.34291 0.345703,5.42187 3.963131,2.00292 4.162598,4.91137 0.410156,5.96875 -5.375287,1.51466 -19.172464,-0.0156 -21.019531,-2.33203 -0.865132,-1.08496 0.631437,-15.69169 2.042969,-19.94141 0.890002,-2.67955 -0.05525,-6.05974 -2.523438,-9.02734 -1.364516,-1.64062 -1.360369,-1.66429 0.451172,-2.01563 2.631403,-0.51034 3.412009,-1.21436 2.335938,-2.10742 -1.46595,-1.21663 -7.826172,1.79928 -7.826172,3.71094 0,1.53841 1.571669,2.33666 1.992187,1.01172 0.285126,-0.89835 1.542538,0.46493 2.875,3.11914 3.526913,7.02547 -5.793561,11.74468 -13.482421,6.82617 -13.495451,-8.63293 -7.154025,-29.752332 9.25,-30.804686 1.844971,-0.118359 2.416687,-0.252307 2.644531,-0.615235 C 59.932662,87.25074 57.525018,86.683466 53.841797,87.326172 51.551533,87.725813 51.710196,87.804143 51.8125,86.314453 52.929225,70.053462 68.721574,55.55109 85.542969,53.681641 Z m 21.294921,14.052734 c -5.53179,0.0048 -6.18168,10.534183 -0.87305,14.136719 4.55837,3.093391 8.58287,-3.953528 5.73243,-10.03711 -1.37603,-2.936816 -2.75792,-4.101409 -4.85938,-4.099609 z m -23.861328,2.414063 c -1.408337,-0.01596 -2.729661,0.909392 -3.599609,2.93164 -2.006292,4.663752 -0.554533,10.38479 3.146485,12.398438 4.309996,2.34498 8.044884,-2.30699 6.546874,-8.154297 -1.15581,-4.511573 -3.746521,-7.149179 -6.09375,-7.175781 z m 62.374998,1.355468 c 3.77268,-0.123006 3.13592,4.119309 -1.89844,6.658203 -2.4612,1.241225 -2.48154,1.243869 -3.75781,0.386719 -0.63643,-0.427433 -1.43215,-0.845497 -1.76758,-0.929687 -1.61099,-0.404333 2.7439,-4.947851 5.53711,-5.777344 0.71894,-0.213501 1.34777,-0.320318 1.88672,-0.337891 z m -9.95312,7.638672 c 0.59432,0.106233 1.23421,0.333965 1.93359,0.679688 5.22355,2.582137 6.76109,8.019531 2.26758,8.019531 -0.92162,0 -1.28335,0.129926 -1.5918,0.570312 -0.6103,0.871321 -0.12169,1.546875 1.11914,1.546875 0.89525,0 1.02941,0.09141 1.32617,0.91211 0.33851,0.936136 1.66869,2.261719 2.26954,2.261718 0.18501,10e-7 0.55001,0.473012 0.81054,1.050782 0.26054,0.57777 0.69591,1.250945 0.9668,1.496094 1.71301,1.550257 -6.30769,8.434962 -11.80469,10.132812 -1.77684,0.54883 -4.77221,0.83453 -6.66601,0.63672 l -1.10352,-0.11524 0.63281,-1.43164 c 2.01728,-4.56143 3.04911,-11.537089 2.50196,-16.910152 l -0.29493,-2.890626 1.04883,-0.945312 c 0.57642,-0.519823 1.53891,-1.687636 2.13867,-2.595703 1.29552,-1.961451 2.66234,-2.736668 4.44532,-2.417969 z m 7.94726,2.203125 c 0.14252,-0.04351 0.61243,0.313909 1.47266,1.048828 2.82601,2.414333 2.92619,7.066121 0.18359,8.484375 -1.06769,0.552122 -1.40556,0.508874 -2.13867,-0.271484 -0.68144,-0.725356 -0.70246,-0.65008 0.66211,-2.371094 1.12685,-1.421197 1.25238,-3.693605 0.30469,-5.541016 -0.44244,-0.862481 -0.62689,-1.306096 -0.48438,-1.349609 z m -34.32617,6.251953 c -1.01948,-0.06263 -2.18951,0.09768 -3.48828,0.498047 -4.73779,1.460493 -5.95979,1.637157 -12.794922,1.855469 -8.075022,0.257915 -9.288175,0.622125 -10.351562,3.107422 -2.052385,4.796735 4.224456,10.983976 12.140625,11.968746 9.609789,1.19547 18.239879,-3.97144 18.906249,-11.320309 0.33804,-3.727929 -1.35366,-5.921472 -4.41211,-6.109375 z m 40.22852,0.304688 c 0.10451,0.0081 0.14524,0.53435 0.18554,1.583984 0.0826,2.150828 -0.22444,3.150869 -1.34375,4.375 -0.66596,0.728317 -1.53974,0.764601 -2.15039,0.08984 -0.4391,-0.485199 -0.40032,-0.56052 0.97071,-1.917969 0.99652,-0.986638 1.53009,-1.772229 1.76953,-2.603515 0.29489,-1.023808 0.46384,-1.535398 0.56836,-1.527344 z m -58.845706,7.96289 c 4.263411,0.05622 9.388972,1.835958 12.888676,4.720706 1.45768,1.20155 0.77497,1.68622 -3.2793,2.32617 -5.374493,0.84835 -10.976543,-0.80824 -14.029298,-4.148438 -1.502029,-1.643458 -1.496855,-1.664794 0.537109,-2.357422 1.137533,-0.387365 2.461676,-0.559757 3.882813,-0.541016 z" /></g></g></svg>
